<svg id="_41291a5fd29b754cefcedb570750bd09" data-name="41291a5fd29b754cefcedb570750bd09" xmlns="http://www.w3.org/2000/svg" width="27.442" height="18.295" viewBox="0 0 27.442 18.295">
  <path id="Tracé_31" data-name="Tracé 31" d="M0,85.331H27.442v18.295H0Z" transform="translate(0 -85.331)" fill="#f0f0f0"/>
  <path id="Tracé_32" data-name="Tracé 32" d="M0,127.994H27.442v2.287H0Zm0,4.574H27.442v2.287H0Zm0,4.573H27.442v2.287H0Zm0,4.574H27.442V144H0Z" transform="translate(0 -125.707)" fill="#d80027"/>
  <path id="Tracé_33" data-name="Tracé 33" d="M0,85.331H13.721v9.851H0Z" transform="translate(0 -85.331)" fill="#2e52b2"/>
  <path id="Tracé_34" data-name="Tracé 34" d="M29.958,117.3l-.221.68h-.715l.578.42-.221.68.578-.42.578.42-.221-.68.578-.42h-.715Zm.221,3.133-.221-.68-.221.68h-.715l.578.42-.221.68.578-.42.578.42-.221-.68.578-.42Zm-3.021,0-.221-.68-.221.68H26l.578.42-.221.68.578-.42.578.42-.221-.68.578-.42Zm-.221-3.133-.221.68H26l.578.42-.221.68.578-.42.578.42-.221-.68.578-.42h-.715Zm3.021-2.453-.221.68h-.715l.578.42-.221.68.578-.42.578.42-.221-.68.578-.42h-.715Zm-3.021,0-.221.68H26l.578.42-.221.68.578-.42.578.42-.221-.68.578-.42h-.715Zm6.042,2.453-.221.68h-.715l.578.42-.221.68.578-.42.578.42-.221-.68.578-.42H33.2Zm.221,3.133-.221-.68-.221.68h-.715l.578.42-.221.68.578-.42.578.42-.221-.68.578-.42Zm3.021,0-.221-.68-.221.68h-.715l.578.42-.221.68.578-.42.578.42-.221-.68.578-.42ZM36,117.3l-.221.68h-.715l.578.42-.221.68.578-.42.578.42-.221-.68.578-.42H36.22Zm-3.021-2.453-.221.68h-.715l.578.42-.221.68.578-.42.578.42-.221-.68.578-.42H33.2Zm3.021,0-.221.68h-.715l.578.42-.221.68.578-.42.578.42-.221-.68.578-.42H36.22Z" transform="translate(-24.607 -113.268)" fill="#f0f0f0"/>
</svg>
