<svg xmlns="http://www.w3.org/2000/svg" width="20.139" height="18.349" viewBox="0 0 20.139 18.349">
  <g id="_0ced592d8e2d93545620812a25b72857" data-name="0ced592d8e2d93545620812a25b72857" transform="translate(-3.5 -25.94)">
    <rect id="Rectangle_125" data-name="Rectangle 125" width="7.944" height="18.349" transform="translate(9.598 25.94)" fill="#f2f2f2"/>
    <path id="Tracé_28" data-name="Tracé 28" d="M10.213,25.94V44.289H6.185A2.687,2.687,0,0,1,3.5,41.6V28.625A2.686,2.686,0,0,1,6.185,25.94Z" fill="#293788"/>
    <path id="Tracé_29" data-name="Tracé 29" d="M346.883,28.625V41.6a2.686,2.686,0,0,1-2.685,2.685H340.17V25.94H344.2a2.685,2.685,0,0,1,2.685,2.686Z" transform="translate(-323.244)" fill="#ef2b2d"/>
    <path id="Tracé_30" data-name="Tracé 30" d="M47.9,54H33.116a1.566,1.566,0,0,0-1.566,1.565v8.369a1.1,1.1,0,0,0,1.25,1.084,20.777,20.777,0,0,0,15.637-10.08A.625.625,0,0,0,47.9,54Z" transform="translate(-26.931 -26.941)" fill="#fff" opacity="0.12"/>
  </g>
</svg>
