<svg xmlns="http://www.w3.org/2000/svg" width="26.107" height="39.161" viewBox="0 0 26.107 39.161">
  <g id="c4067ea13a0109e58cd0c2fc71e6b022" transform="translate(-6 -3)">
    <path id="Tracé_40" data-name="Tracé 40" d="M24.054,18.229a1.975,1.975,0,0,1-1.523-.653L11.653,6.7a2.1,2.1,0,0,1,0-3.046,2.1,2.1,0,0,1,3.046,0L25.577,14.531a2.1,2.1,0,0,1,0,3.046,1.975,1.975,0,0,1-1.523.653Z" transform="translate(5.878)" fill="#06a952"/>
    <path id="Tracé_41" data-name="Tracé 41" d="M8.176,18.229a1.975,1.975,0,0,1-1.523-.653,2.1,2.1,0,0,1,0-3.046L17.531,3.653a2.1,2.1,0,0,1,3.046,0,2.1,2.1,0,0,1,0,3.046L9.7,17.577a1.975,1.975,0,0,1-1.523.653Z" transform="translate(0 0)" fill="#06a952"/>
    <path id="Tracé_42" data-name="Tracé 42" d="M13.176,42.161A2.055,2.055,0,0,1,11,39.986V5.176A2.055,2.055,0,0,1,13.176,3a2.055,2.055,0,0,1,2.176,2.176v34.81A2.055,2.055,0,0,1,13.176,42.161Z" transform="translate(5.878 0)" fill="#06a952"/>
  </g>
</svg>