<svg xmlns="http://www.w3.org/2000/svg" width="36" height="36" viewBox="0 0 36 36">
  <g id="_606c38de8cb3ca8eb682d0b3a215f85a" data-name="606c38de8cb3ca8eb682d0b3a215f85a" opacity="0.5">
    <path id="Tracé_173" data-name="Tracé 173" d="M27,18.5H19.5V26H27ZM25.5,2V5h-12V2h-3V5H9A2.986,2.986,0,0,0,6.015,8L6,29a3,3,0,0,0,3,3H30a3,3,0,0,0,3-3V8a3,3,0,0,0-3-3H28.5V2ZM30,29H9V12.5H30Z" transform="translate(-1.5 -0.5)" fill="#05445e"/>
    <path id="Tracé_174" data-name="Tracé 174" d="M0,0H36V36H0Z" fill="none"/>
  </g>
</svg>