<svg xmlns="http://www.w3.org/2000/svg" xmlns:xlink="http://www.w3.org/1999/xlink" width="340" height="338" viewBox="0 0 544 338">
  <defs>
    <filter id="Ellipse_131" x="198.152" y="135.534" width="107.198" height="107.198" filterUnits="userSpaceOnUse">
      <feOffset dy="3" input="SourceAlpha"/>
      <feGaussianBlur stdDeviation="3" result="blur"/>
      <feFlood flood-opacity="0.161"/>
      <feComposite operator="in" in2="blur"/>
      <feComposite in="SourceGraphic"/>
    </filter>
  </defs>
  <g id="Groupe_988" data-name="Groupe 988" transform="translate(9985 5524)">
    <path id="Soustraction_9" data-name="Soustraction 9" d="M110.5,221a109.984,109.984,0,0,1-61.781-18.872A110.823,110.823,0,0,1,8.684,153.512,110.354,110.354,0,0,1,18.872,48.719,110.824,110.824,0,0,1,67.489,8.684,110.354,110.354,0,0,1,172.282,18.872a110.823,110.823,0,0,1,40.035,48.617,110.355,110.355,0,0,1-10.188,104.793,110.822,110.822,0,0,1-48.617,40.035A109.81,109.81,0,0,1,110.5,221Zm0-181.162A70.662,70.662,0,1,0,181.162,110.5,70.742,70.742,0,0,0,110.5,39.838Z" transform="translate(-9985 -5407)" fill="rgba(255,204,41,0.8)"/>
    <path id="Soustraction_10" data-name="Soustraction 10" d="M132,264a131.383,131.383,0,0,1-73.8-22.543,132.386,132.386,0,0,1-47.825-58.076A131.825,131.825,0,0,1,22.544,58.2,132.387,132.387,0,0,1,80.62,10.373,131.825,131.825,0,0,1,205.8,22.544,132.386,132.386,0,0,1,253.627,80.62,131.827,131.827,0,0,1,241.457,205.8a132.384,132.384,0,0,1-58.076,47.824A131.175,131.175,0,0,1,132,264Zm0-216.411A84.411,84.411,0,1,0,216.411,132,84.506,84.506,0,0,0,132,47.589Z" transform="translate(-9705 -5524)" fill="#abe4ea"/>
    <g id="Groupe_792" data-name="Groupe 792" transform="translate(-9777.848 -5382.466)">
      <g transform="matrix(1, 0, 0, 1, -207.15, -141.53)" filter="url(#Ellipse_131)">
        <circle id="Ellipse_131-2" data-name="Ellipse 131" cx="31.657" cy="31.657" r="31.657" transform="matrix(-0.77, -0.64, 0.64, -0.77, 255.65, 230.73)" fill="#fff"/>
      </g>
      <path id="Layer_2" data-name="Layer 2" d="M27.563,16.066a1.243,1.243,0,0,0-.708,1.118v3.728H16.913a1.243,1.243,0,0,0-1.243,1.243V24.64a1.243,1.243,0,0,0,1.243,1.243h9.942v3.728a1.243,1.243,0,0,0,2.063.932l7.456-6.5a1.209,1.209,0,0,0-.05-1.876L28.867,16.24a1.243,1.243,0,0,0-1.3-.174ZM11.233,20.788a1.243,1.243,0,0,0,.708-1.118V15.941h9.942A1.243,1.243,0,0,0,23.126,14.7V12.213a1.243,1.243,0,0,0-1.243-1.243H11.942V7.242A1.243,1.243,0,0,0,9.879,6.31l-7.456,6.5a1.209,1.209,0,0,0,.05,1.876l7.456,5.928A1.243,1.243,0,0,0,11.233,20.788Z" transform="translate(25.247 25.96)" fill="#05445e"/>
    </g>
  </g>
</svg>