<svg xmlns="http://www.w3.org/2000/svg" width="26" height="17.306" viewBox="0 0 26 17.306">
  <g id="_253fba5f3dd613e92f8536852b1fd296" data-name="253fba5f3dd613e92f8536852b1fd296" transform="translate(0 -4.025)">
    <path id="Tracé_95" data-name="Tracé 95" d="M13,14.831a.4.4,0,0,1-.325-.108L.758,10.39a1.006,1.006,0,0,1,0-1.95L12.675,4.106a.925.925,0,0,1,.758,0L25.35,8.44a1.1,1.1,0,0,1,.65.975,1.041,1.041,0,0,1-.758.975L13.325,14.723a.4.4,0,0,1-.325.108ZM4.225,9.415,13,12.556l8.775-3.142L13,6.273Z" fill="#189ab4"/>
    <path id="Tracé_96" data-name="Tracé 96" d="M19.667,20.829H12.083a1.083,1.083,0,0,1,0-2.167h6.5a14.19,14.19,0,0,0-1.842-6.933,1.1,1.1,0,0,1,1.842-1.192,17.4,17.4,0,0,1,2.167,9.1,1.056,1.056,0,0,1-1.083,1.192Z" transform="translate(0.917 0.503)" fill="#189ab4"/>
    <path id="Tracé_97" data-name="Tracé 97" d="M12.667,21H5.083A1.024,1.024,0,0,1,4,19.917a17.4,17.4,0,0,1,2.167-9.1,1.1,1.1,0,1,1,1.842,1.192,14.19,14.19,0,0,0-1.842,6.933h6.5a1.024,1.024,0,0,1,1.083,1.083C13.75,20.675,13.317,21,12.667,21ZM23.5,21a1.024,1.024,0,0,1-1.083-1.083V9.083a1.083,1.083,0,1,1,2.167,0V19.917A1.024,1.024,0,0,1,23.5,21Z" transform="translate(0.333 0.331)" fill="#189ab4"/>
  </g>
</svg>