<svg xmlns="http://www.w3.org/2000/svg" width="12.036" height="15.035" viewBox="0 0 15.036 15.035">
  <path id="_223ed637876b0981285cd3161e3297dd" data-name="223ed637876b0981285cd3161e3297dd" d="M16.284,11.021a.752.752,0,0,0-.752.752V14.78a.752.752,0,0,1-.752.752H4.255A.752.752,0,0,1,3.5,14.78V11.773a.752.752,0,0,0-1.5,0V14.78a2.255,2.255,0,0,0,2.255,2.255H14.78a2.255,2.255,0,0,0,2.255-2.255V11.773A.752.752,0,0,0,16.284,11.021Zm-7.3,1.286a.752.752,0,0,0,.248.158.707.707,0,0,0,.571,0,.752.752,0,0,0,.248-.158L13.059,9.3a.755.755,0,1,0-1.068-1.067L10.27,9.961V2.752a.752.752,0,0,0-1.5,0V9.961L7.044,8.232A.755.755,0,0,0,5.977,9.3Z" transform="translate(-2 -2)" fill="#05445e"/>
</svg>