<svg xmlns="http://www.w3.org/2000/svg" width="11.342" height="14.79" viewBox="0 0 11.342 14.79">
  <path id="da086273b974cb595139babd4da17772" d="M17.032,8.6l-.238,7.21a2.375,2.375,0,0,1-2.382,2.3H9.886A2.375,2.375,0,0,1,7.5,15.817L7.265,8.6a.6.6,0,0,1,1.191-.039l.238,7.212a1.191,1.191,0,0,0,1.191,1.145h4.526A1.191,1.191,0,0,0,15.6,15.775l.238-7.209a.6.6,0,0,1,1.191.039Zm.788-2.4a.6.6,0,0,1-.6.6H7.074a.6.6,0,1,1,0-1.191H8.92a.76.76,0,0,0,.758-.684,1.781,1.781,0,0,1,1.777-1.6h1.388a1.781,1.781,0,0,1,1.777,1.6.76.76,0,0,0,.758.684h1.846a.6.6,0,0,1,.6.6Zm-7.108-.6h2.875a1.965,1.965,0,0,1-.152-.562.6.6,0,0,0-.592-.536H11.456a.6.6,0,0,0-.592.536,1.965,1.965,0,0,1-.152.562Zm.6,9.023V9.562a.6.6,0,0,0-1.191,0v5.073a.6.6,0,0,0,1.191,0Zm2.867,0V9.562a.6.6,0,0,0-1.191,0v5.073a.6.6,0,0,0,1.191,0Z" transform="translate(-6.478 -3.322)" fill="#e10c0c"/>
</svg>