<svg xmlns="http://www.w3.org/2000/svg" width="10.12" height="34.458" viewBox="0 0 24.12 34.458">
  <path id="_6563d0182eee928139c2177b55e72038" data-name="6563d0182eee928139c2177b55e72038" d="M27.4,2H6.723A1.723,1.723,0,0,0,5,3.723V34.735a1.723,1.723,0,0,0,2.843,1.309l9.217-7.736,9.114,7.65a1.723,1.723,0,0,0,1.223.5,1.447,1.447,0,0,0,.655-.138,1.723,1.723,0,0,0,1.068-1.585V3.723A1.723,1.723,0,0,0,27.4,2ZM25.675,31.048l-7.512-6.306a1.723,1.723,0,0,0-2.205,0L8.446,31.048V5.446H25.675Z" transform="translate(-5 -2)" fill="#05445E"/>
</svg>