<svg xmlns="http://www.w3.org/2000/svg" width="26" height="26" viewBox="0 0 26 26">
  <g id="_606c38de8cb3ca8eb682d0b3a215f85a" data-name="606c38de8cb3ca8eb682d0b3a215f85a" opacity="0.6">
    <path id="Tracé_7" data-name="Tracé 7" d="M21.167,13.917H15.75v5.417h5.417ZM20.083,2V4.167H11.417V2H9.25V4.167H8.167A2.157,2.157,0,0,0,6.011,6.333L6,21.5a2.166,2.166,0,0,0,2.167,2.167H23.333A2.166,2.166,0,0,0,25.5,21.5V6.333a2.166,2.166,0,0,0-2.167-2.167H22.25V2Zm3.25,19.5H8.167V9.583H23.333Z" transform="translate(-2.75 -0.917)" fill="#05445e"/>
    <path id="Tracé_8" data-name="Tracé 8" d="M0,0H26V26H0Z" fill="none"/>
  </g>
</svg>
