<svg xmlns="http://www.w3.org/2000/svg" width="14.952" height="32.208" viewBox="0 0 28.952 32.208">
  <path id="_3ea3309757e7ff99fa89e3339abdc268" data-name="3ea3309757e7ff99fa89e3339abdc268" d="M30.344,11.665h0L20.693,3.2a4.825,4.825,0,0,0-6.434,0l-9.651,8.46A4.825,4.825,0,0,0,3,15.3V29.358a4.825,4.825,0,0,0,4.825,4.825h19.3a4.825,4.825,0,0,0,4.825-4.825V15.284a4.825,4.825,0,0,0-1.608-3.619Zm-9.651,19.3H14.259V22.924a1.608,1.608,0,0,1,1.608-1.608h3.217a1.608,1.608,0,0,1,1.608,1.608Zm8.042-1.608a1.608,1.608,0,0,1-1.608,1.608H23.91V22.924A4.825,4.825,0,0,0,19.084,18.1H15.868a4.825,4.825,0,0,0-4.825,4.825v8.042H7.825a1.608,1.608,0,0,1-1.608-1.608V15.284a1.608,1.608,0,0,1,.547-1.206l9.651-8.444a1.608,1.608,0,0,1,2.123,0l9.651,8.444a1.608,1.608,0,0,1,.547,1.206Z" transform="translate(-3 -1.976)" fill="#2d6277"/>
</svg>