<svg xmlns="http://www.w3.org/2000/svg" width="26" height="26" viewBox="0 0 26 26">
  <g id="providers-list" transform="translate(0 0.26)">
    <g id="linkedin">
      <rect id="Rectangle-2" width="26" height="26" rx="4" transform="translate(0 -0.26)" fill="#117eb8"/>
      <path id="Shape" d="M12.646,17.959h3.44V29.028h-3.44V17.959Zm1.721-5.5a1.995,1.995,0,1,1-1.995,1.995,2,2,0,0,1,1.995-1.995Zm3.878,5.5h3.3v1.513h.046a3.615,3.615,0,0,1,3.255-1.788c3.484,0,4.127,2.293,4.127,5.273v6.071H25.534V23.645c0-1.283-.024-2.935-1.788-2.935-1.79,0-2.065,1.4-2.065,2.842v5.476H18.244V17.959Z" transform="translate(-7.949 -8.003)" fill="#fff" fill-rule="evenodd"/>
    </g>
  </g>
</svg>
