<svg xmlns="http://www.w3.org/2000/svg" width="20.46" height="20.46" viewBox="0 0 24.46 24.46">
  <g id="_732bd5abd21779b6e947d503300ae826" data-name="732bd5abd21779b6e947d503300ae826" opacity="0.66">
    <path id="Tracé_38" data-name="Tracé 38" d="M0,0H24.46V24.46H0Z" fill="none"/>
    <path id="Tracé_39" data-name="Tracé 39" d="M20.345,4H4.038A2.036,2.036,0,0,0,2.01,6.038L2,18.268a2.044,2.044,0,0,0,2.038,2.038H20.345a2.044,2.044,0,0,0,2.038-2.038V6.038A2.044,2.044,0,0,0,20.345,4ZM19.326,18.268H5.057a1.022,1.022,0,0,1-1.019-1.019V8.077L11.111,12.5a2.019,2.019,0,0,0,2.161,0l7.073-4.423v9.172A1.022,1.022,0,0,1,19.326,18.268Zm-7.134-7.134-8.153-5.1H20.345Z" transform="translate(0.038 0.077)" fill="#05445e"/>
  </g>
</svg>