<svg xmlns="http://www.w3.org/2000/svg" width="22.551" height="22.509" viewBox="0 0 28.551 28.509">
  <g id="Groupe_319" data-name="Groupe 319" transform="translate(-11.788 -11.788)">
    <g id="Layer_2" data-name="Layer 2" transform="translate(11.788 11.788)">
      <g id="message-circle" transform="translate(0 0)">
        <circle id="Ellipse_44" data-name="Ellipse 44" cx="1.421" cy="1.421" r="1.421" transform="translate(12.822 12.817)" fill="#189ab4"/>
        <circle id="Ellipse_45" data-name="Ellipse 45" cx="1.421" cy="1.421" r="1.421" transform="translate(18.504 12.817)" fill="#189ab4"/>
        <circle id="Ellipse_46" data-name="Ellipse 46" cx="1.421" cy="1.421" r="1.421" transform="translate(7.139 12.817)" fill="#189ab4"/>
        <path id="Tracé_94" data-name="Tracé 94" d="M26.261,6.172A14.207,14.207,0,0,0,3.133,21.8a1.506,1.506,0,0,1,.128.909l-1.25,6.009a1.412,1.412,0,0,0,1.421,1.7h.284L9.8,29.2a1.79,1.79,0,0,1,.909.128A14.207,14.207,0,0,0,26.332,6.2ZM27.44,18.049a11.365,11.365,0,0,1-15.627,8.638,4.631,4.631,0,0,0-1.776-.369,4.873,4.873,0,0,0-.8.071l-4.006.81.81-4.006a4.39,4.39,0,0,0-.3-2.571A11.367,11.367,0,1,1,27.44,18.049Z" transform="translate(-1.975 -1.978)" fill="#189ab4"/>
      </g>
    </g>
  </g>
</svg>
