<svg xmlns="http://www.w3.org/2000/svg" width="27" height="26.999" viewBox="0 0 27 26.999">
  <g id="Page-1" transform="translate(0)" opacity="0.5">
    <g id="Dribbble-Light-Preview" transform="translate(0)">
      <g id="icons">
        <path id="profile_round-_1342_" data-name="profile_round-[#1342]" d="M106.36,2023.3H88.641a1.343,1.343,0,0,1-1.3-1.806c1.669-4,5.589-6.294,10.156-6.294s8.489,2.292,10.157,6.294a1.343,1.343,0,0,1-1.3,1.806m-14.372-16.2a5.513,5.513,0,1,1,5.512,5.4,5.463,5.463,0,0,1-5.512-5.4m18.952,15.708a12.849,12.849,0,0,0-8.26-9.4,8.01,8.01,0,0,0,2.992-7.564,8.284,8.284,0,0,0-16.44,1.256,8.015,8.015,0,0,0,3.09,6.308,12.848,12.848,0,0,0-8.262,9.4A2.7,2.7,0,0,0,86.773,2026h21.454a2.7,2.7,0,0,0,2.713-3.191" transform="translate(-84 -1999)" fill="#05445e" fill-rule="evenodd"/>
      </g>
    </g>
  </g>
</svg>