<svg xmlns="http://www.w3.org/2000/svg" width="21.712" height="23.903" viewBox="0 0 27.712 29.903">
  <g id="Groupe_318" data-name="Groupe 318" transform="translate(-11.921 -11.788)">
    <g id="Groupe_293" data-name="Groupe 293" transform="translate(11.921 11.788)">
      <path id="_39-Notification" data-name="39-Notification" d="M30.3,23.864a17.655,17.655,0,0,0-1.067-1.633,9.87,9.87,0,0,1-1.953-4.13l-.448-6.3C26.57,6.93,23.721,2,18.055,2H15.686C10.02,2,7.15,6.93,6.861,11.8L6.413,18.1a10.009,10.009,0,0,1-1.953,4.172c-.363.555-.726,1.067-.971,1.547a2.369,2.369,0,0,0-.213,2.486,2.561,2.561,0,0,0,2.348,1.3h8.238a3.2,3.2,0,1,0,6.018,0h8.238a2.561,2.561,0,0,0,2.348-1.344,2.284,2.284,0,0,0-.16-2.4ZM17.938,28.677A1.067,1.067,0,1,1,16.87,27.61,1.067,1.067,0,0,1,17.938,28.677Zm10.671-3.383c0,.085-.181.181-.448.181H5.624c-.267,0-.405-.1-.448-.181s0-.2.107-.373c.288-.491.619-1,.96-1.515a11.194,11.194,0,0,0,2.294-5.154L9,11.945c.224-3.607,2.113-7.811,6.69-7.811h2.369c4.578,0,6.466,4.2,6.69,7.822l.459,6.3c.128,1.889,1.27,3.617,2.337,5.154.341.512.672,1.067,1.014,1.611A.267.267,0,0,1,28.608,25.294Z" transform="translate(-3.02 -2)" fill="#189ab4"/>
    </g>
  </g>
</svg>
