<svg xmlns="http://www.w3.org/2000/svg" width="19.748" height="28.217" viewBox="0 0 19.748 28.217">
  <path id="c839c07daa330db315a65863143c41b9" d="M20.516,2H9.232A4.232,4.232,0,0,0,5,6.232V28.8a1.411,1.411,0,0,0,2.116,1.227l7.758-4.486,7.758,4.486A1.411,1.411,0,0,0,24.748,28.8V6.232A4.232,4.232,0,0,0,20.516,2Zm1.411,24.361-6.348-3.668a1.411,1.411,0,0,0-1.411,0L7.821,26.361V6.232A1.411,1.411,0,0,1,9.232,4.821H20.516a1.411,1.411,0,0,1,1.411,1.411Z" transform="translate(-5 -2)" fill="#ffcc29"/>
</svg>
