<svg xmlns="http://www.w3.org/2000/svg" width="19.748" height="28.217" viewBox="0 0 19.748 28.217">
  <g id="Groupe_388" data-name="Groupe 388" transform="translate(-1726 -562.5)">
    <path id="c839c07daa330db315a65863143c41b9" d="M20.516,2H9.232A4.232,4.232,0,0,0,5,6.232V28.8a1.411,1.411,0,0,0,2.116,1.227l7.758-4.486,7.758,4.486A1.411,1.411,0,0,0,24.748,28.8V6.232A4.232,4.232,0,0,0,20.516,2Zm1.411,24.361-6.348-3.668a1.411,1.411,0,0,0-1.411,0L7.821,26.361V6.232A1.411,1.411,0,0,1,9.232,4.821H20.516a1.411,1.411,0,0,1,1.411,1.411Z" transform="translate(1721 560.5)" fill="#ffcc29"/>
    <path id="_5773c68b490f9a11071b726ac6c74187" data-name="5773c68b490f9a11071b726ac6c74187" d="M6,5.536A1.513,1.513,0,0,1,7.49,4h14.9a1.513,1.513,0,0,1,1.49,1.536V25.7a1.543,1.543,0,0,1-.787,1.355,1.451,1.451,0,0,1-1.529-.077L15.764,23a1.452,1.452,0,0,0-1.653,0L8.316,26.982a1.451,1.451,0,0,1-1.529.077A1.543,1.543,0,0,1,6,25.7Z" transform="translate(1720.937 560.637)" fill="#ffcc29"/>
  </g>
</svg>