<svg xmlns="http://www.w3.org/2000/svg" width="16.078" height="15.264" viewBox="0 0 40.078 44.264">
  <g id="settings" transform="translate(-24.545 1.1)">
    <path id="Tracé_102" data-name="Tracé 102" d="M26.369,31.548a5.258,5.258,0,0,0,7.181,1.931l.005,0,.78-.45a15.734,15.734,0,0,0,4.992,2.881v.9a5.258,5.258,0,0,0,10.516,0v-.9a15.732,15.732,0,0,0,4.991-2.885l.783.452a5.261,5.261,0,0,0,5.258-9.114h0l-.778-.449a15.95,15.95,0,0,0,0-5.766l.778-.449a5.261,5.261,0,0,0-5.258-9.114l-.78.45a15.734,15.734,0,0,0-5-2.876v-.9a5.258,5.258,0,0,0-10.516,0v.9a15.732,15.732,0,0,0-4.992,2.885l-.783-.454A5.261,5.261,0,1,0,28.293,17.7h0l.778.449a15.951,15.951,0,0,0,0,5.766l-.778.449A5.268,5.268,0,0,0,26.369,31.548ZM44.584,14.021a7.011,7.011,0,1,1-7.011,7.011A7.011,7.011,0,0,1,44.584,14.021Z" transform="translate(0)" fill="none" stroke="#05445e" stroke-width="3.5"/>
  </g>
</svg>
