<svg id="d56a83daff855ba754852b04aa0f3926" xmlns="http://www.w3.org/2000/svg" width="28.42" height="29" viewBox="0 0 28.42 29">
  <path id="Tracé_2" data-name="Tracé 2" d="M144.47,109.725a12.425,12.425,0,0,0-.306-2.964H130.55v5.381h7.991a7.086,7.086,0,0,1-2.964,4.7l-.027.18,4.3,3.335.3.03a14.177,14.177,0,0,0,4.318-10.666" transform="translate(-116.05 -94.903)" fill="#4285f4"/>
  <path id="Tracé_3" data-name="Tracé 3" d="M26.878,168a13.82,13.82,0,0,0,9.6-3.512l-4.576-3.545a8.582,8.582,0,0,1-5.027,1.45,8.729,8.729,0,0,1-8.249-6.025l-.17.014-4.476,3.464-.059.163A14.49,14.49,0,0,0,26.878,168" transform="translate(-12.378 -139.002)" fill="#34a853"/>
  <path id="Tracé_4" data-name="Tracé 4" d="M6.251,80.759a8.927,8.927,0,0,1-.483-2.868,9.38,9.38,0,0,1,.467-2.868l-.008-.192-4.532-3.52-.148.071a14.469,14.469,0,0,0,0,13.018l4.7-3.641" transform="translate(0 -63.391)" fill="#fbbc05"/>
  <path id="Tracé_5" data-name="Tracé 5" d="M26.878,5.607a8.036,8.036,0,0,1,5.607,2.159l4.092-4A13.931,13.931,0,0,0,26.878,0,14.489,14.489,0,0,0,13.925,7.991l4.688,3.641a8.765,8.765,0,0,1,8.265-6.026" transform="translate(-12.378)" fill="#eb4335"/>
</svg>
