<svg width="20" height="20" viewBox="0 0 20 20" fill="none" xmlns="http://www.w3.org/2000/svg">
<circle cx="10" cy="10" r="10" fill="#189AB4"/>
<path d="M14.8738 9.20129H10.6051V4.93263C10.6051 4.53971 10.2866 4.22119 9.89369 4.22119C9.50077 4.22119 9.18224 4.53971 9.18224 4.93263V9.20129H4.91359C4.52067 9.20129 4.20215 9.51981 4.20215 9.91273C4.20215 10.3056 4.52067 10.6242 4.91359 10.6242H9.18224V14.8928C9.18224 15.2857 9.50077 15.6043 9.89369 15.6043C10.2866 15.6043 10.6051 15.2857 10.6051 14.8928V10.6242H14.8738C15.2667 10.6242 15.5852 10.3056 15.5852 9.91273C15.5852 9.51981 15.2667 9.20129 14.8738 9.20129Z" fill="white"/>
</svg>
