<svg xmlns="http://www.w3.org/2000/svg" width="15.03" height="21.03" viewBox="0 0 21.03 21.03">
  <g id="Groupe_320" data-name="Groupe 320" transform="translate(-1024.469 -468)">
    <g id="Octicons" transform="translate(1024.479 468.01)">
      <g id="verified" transform="translate(-0.01 -0.01)">
        <path id="Shape" d="M20.587,9.277l-1.419-1.76a1.972,1.972,0,0,1-.407-1.011l-.25-2.233a1.983,1.983,0,0,0-1.747-1.747l-2.233-.25a2,2,0,0,1-1.025-.433L11.746.423a1.975,1.975,0,0,0-2.47,0L7.517,1.842a1.972,1.972,0,0,1-1.011.407L4.272,2.5A1.983,1.983,0,0,0,2.525,4.246l-.25,2.233A2,2,0,0,1,1.842,7.5L.423,9.264a1.975,1.975,0,0,0,0,2.47l1.419,1.76A1.972,1.972,0,0,1,2.249,14.5l.25,2.233a1.983,1.983,0,0,0,1.747,1.747l2.233.25a2,2,0,0,1,1.025.433l1.76,1.419a1.975,1.975,0,0,0,2.47,0l1.76-1.419a1.972,1.972,0,0,1,1.011-.407l2.233-.25a1.983,1.983,0,0,0,1.747-1.747l.25-2.233a2,2,0,0,1,.433-1.025l1.419-1.76A1.975,1.975,0,0,0,20.587,9.277ZM8.541,15.766l-4.6-4.6L5.914,9.2l2.627,2.627,6.568-6.568,1.97,2.036Z" transform="translate(0.01 0.01)" fill="#ffcc29" fill-rule="evenodd"/>
      </g>
    </g>
  </g>
</svg>