<svg xmlns="http://www.w3.org/2000/svg" width="40" height="60.851" viewBox="0 0 61 60.851">
  <path id="_22_video_call" data-name="22 video call" d="M50.854,23.993a2.173,2.173,0,0,0-2.173,0l-8.693,5.585a2.173,2.173,0,0,0-1,1.825V28.079a6.52,6.52,0,0,0-6.52-6.52H19.386a6.52,6.52,0,0,0-6.52,6.52v8.693a6.52,6.52,0,0,0,6.52,6.52H32.425a6.52,6.52,0,0,0,6.52-6.52V33.359a2.173,2.173,0,0,0,1,1.825l8.693,5.585a2.166,2.166,0,0,0,3.347-1.825V25.905A2.173,2.173,0,0,0,50.854,23.993ZM34.6,36.771a2.173,2.173,0,0,1-2.173,2.173H19.386a2.173,2.173,0,0,1-2.173-2.173V28.079a2.173,2.173,0,0,1,2.173-2.173H32.425A2.173,2.173,0,0,1,34.6,28.079Zm13.039-1.8-3.955-2.543,3.955-2.543ZM32.425,2A30.425,30.425,0,0,0,2,32.425a30.1,30.1,0,0,0,8.106,20.6A15.625,15.625,0,0,1,5.5,57.373L3.065,58.829a2.173,2.173,0,0,0,1.108,4.02h8.693a18.972,18.972,0,0,0,8.693-2.065A30.425,30.425,0,1,0,32.425,2Zm0,56.5a26.078,26.078,0,0,1-10.192-2.065H22.1a1.043,1.043,0,0,0-.435,0h-.782l-.456.13H20.32A14.865,14.865,0,0,1,12.866,58.5h-1.76a19.428,19.428,0,0,0,3.629-4.672s0-.109,0-.152l.3-.413a2.716,2.716,0,0,0,0-.413,2.978,2.978,0,0,0,0-.413,2.521,2.521,0,0,0,0-.391,2.825,2.825,0,0,0-.174-.369,1.326,1.326,0,0,0-.261-.348.456.456,0,0,0,0-.13,26.078,26.078,0,1,1,17.82,7.3Z" transform="translate(-2 -2)" fill="#ffcc29"/>
</svg>
