<svg xmlns="http://www.w3.org/2000/svg" width="84" height="47.957" viewBox="0 0 64 47.957">
  <path id="_74fa94fa64b5cfb89a313e727db176a0" data-name="74fa94fa64b5cfb89a313e727db176a0" d="M64,257.257a3.5,3.5,0,0,1-1.056,2.248L51.5,272.993a11.55,11.55,0,0,1-4.1,2.946,11.824,11.824,0,0,1-4.888,1.209H5.45a4.62,4.62,0,0,1-2.061-.443,1.514,1.514,0,0,1-.9-1.465,3.5,3.5,0,0,1,1.056-2.248l11.444-13.488a11.55,11.55,0,0,1,4.1-2.946,11.824,11.824,0,0,1,4.888-1.209H61.037a4.62,4.62,0,0,1,2.061.443A1.514,1.514,0,0,1,64,257.257ZM52.317,245.54v5.45H23.979a16.021,16.021,0,0,0-6.71,1.618,15.9,15.9,0,0,0-5.586,4.07L.2,270.166l-.17.2q0-.136-.017-.426T0,269.519v-32.7a7.342,7.342,0,0,1,2.248-5.382,7.342,7.342,0,0,1,5.382-2.248h10.9a7.342,7.342,0,0,1,5.382,2.248,7.342,7.342,0,0,1,2.248,5.382v1.09H44.688a7.676,7.676,0,0,1,7.63,7.63Z" transform="translate(0 -229.191)" fill="#ffcc29"/>
</svg>
