<svg xmlns="http://www.w3.org/2000/svg" xmlns:xlink="http://www.w3.org/1999/xlink" width="147" height="37" viewBox="0 0 44 37">
  <defs>
    <filter id="Rectangle_128" x="0" y="0" width="34" height="37" filterUnits="userSpaceOnUse">
      <feOffset dy="3" input="SourceAlpha"/>
      <feGaussianBlur stdDeviation="3" result="blur"/>
      <feFlood flood-opacity="0.161"/>
      <feComposite operator="in" in2="blur"/>
      <feComposite in="SourceGraphic"/>
    </filter>
  </defs>
  <g id="Groupe_181" data-name="Groupe 181" transform="translate(-1085 -1031)">
    <g transform="matrix(1, 0, 0, 1, 1085, 1031)" filter="url(#Rectangle_128)">
      <rect id="Rectangle_128-2" data-name="Rectangle 128" width="26" height="19" rx="5" transform="translate(9 6)" fill="#fff" opacity="0.71"/>
    </g>
    <path id="_276b355119ba95049b26df35a61a66ba" data-name="276b355119ba95049b26df35a61a66ba" d="M12,10a2,2,0,1,0,2,2A2,2,0,0,0,12,10ZM5,10a2,2,0,1,0,2,2A2,2,0,0,0,5,10Zm14,0a2,2,0,1,0,2,2A2,2,0,0,0,19,10Z" transform="translate(1095 1034)" fill="#189ab4"/>
  </g>
</svg>